# Blender v2.78 (sub 0) OBJ File: ''
# www.blender.org
o Mesh1_Component_1_1_Model.004
v -0.015000 -0.015000 -0.015000
v 0.015000 0.015000 -0.015000
v 0.015000 -0.015000 -0.015000
v -0.015000 0.015000 -0.015000
v -0.015000 0.015000 0.015000
v -0.015000 -0.015000 0.015000
v 0.015000 -0.015000 0.015000
v 0.015000 0.015000 0.015000
vt 1.1811 1.1811
vt 0.0000 0.0000
vt 1.1811 0.0000
vt 0.0000 1.1811
vt 1.1811 0.0000
vt 0.0000 1.1811
vt 0.0000 0.0000
vt 1.1811 1.1811
vt 0.0000 1.1811
vt 1.1811 0.0000
vt 0.0000 0.0000
vt -1.1811 1.1811
vt -1.1811 0.0000
vt 0.0000 1.1811
vt -1.1811 1.1811
vt -1.1811 0.0000
vt -1.1811 0.0000
vt 0.0000 0.0000
vt -1.1811 1.1811
vn 0.0000 0.0000 -1.0000
vn -1.0000 0.0000 -0.0000
vn 0.0000 -1.0000 0.0000
vn 1.0000 0.0000 0.0000
vn 0.0000 1.0000 0.0000
vn -0.0000 0.0000 1.0000
s 1
f 1/1/1 2/2/1 3/3/1
f 2/2/1 1/1/1 4/4/1
f 1/5/2 5/6/2 4/7/2
f 5/6/2 1/5/2 6/8/2
f 1/9/3 7/10/3 6/8/3
f 7/10/3 1/9/3 3/11/3
f 2/2/4 7/12/4 3/13/4
f 7/12/4 2/2/4 8/14/4
f 2/2/5 5/15/5 8/16/5
f 5/15/5 2/2/5 4/4/5
f 5/6/6 7/17/6 8/18/6
f 7/17/6 5/6/6 6/19/6
